<svg width="17" height="17" viewBox="0 0 17 17" fill="none" xmlns="http://www.w3.org/2000/svg">
<path fill-rule="evenodd" clip-rule="evenodd" d="M13.5 2.50024H3.5C2.94772 2.50024 2.5 2.94796 2.5 3.50024V13.5002C2.5 14.0525 2.94772 14.5002 3.5 14.5002H13.5C14.0523 14.5002 14.5 14.0525 14.5 13.5002V3.50024C14.5 2.94796 14.0523 2.50024 13.5 2.50024ZM3.5 0.500244C1.84315 0.500244 0.5 1.84339 0.5 3.50024V13.5002C0.5 15.1571 1.84315 16.5002 3.5 16.5002H13.5C15.1569 16.5002 16.5 15.1571 16.5 13.5002V3.50024C16.5 1.84339 15.1569 0.500244 13.5 0.500244H3.5Z" fill="#707070"/>
</svg>
