<svg width="24" height="24" viewBox="0 0 24 24" fill="none" xmlns="http://www.w3.org/2000/svg">
<path fill-rule="evenodd" clip-rule="evenodd" d="M0.75 6C0.75 5.58579 1.08579 5.25 1.5 5.25H22.5C22.9142 5.25 23.25 5.58579 23.25 6C23.25 6.41421 22.9142 6.75 22.5 6.75H1.5C1.08579 6.75 0.75 6.41421 0.75 6Z" fill="currentColor"/>
<path fill-rule="evenodd" clip-rule="evenodd" d="M0.75 12C0.75 11.5858 1.08579 11.25 1.5 11.25H22.5C22.9142 11.25 23.25 11.5858 23.25 12C23.25 12.4142 22.9142 12.75 22.5 12.75H1.5C1.08579 12.75 0.75 12.4142 0.75 12Z" fill="currentColor"/>
<path fill-rule="evenodd" clip-rule="evenodd" d="M0.75 18C0.75 17.5858 1.08579 17.25 1.5 17.25H22.5C22.9142 17.25 23.25 17.5858 23.25 18C23.25 18.4142 22.9142 18.75 22.5 18.75H1.5C1.08579 18.75 0.75 18.4142 0.75 18Z" fill="currentColor"/>
</svg>
