<svg width="24" height="24" viewBox="0 0 24 24" fill="none" xmlns="http://www.w3.org/2000/svg">
<path fill-rule="evenodd" clip-rule="evenodd" d="M2.94035 1.93024C3.52699 1.35829 4.47812 1.35829 5.06476 1.93024L22.06 18.4998C22.6467 19.0718 22.6467 19.9991 22.06 20.571C21.4734 21.143 20.5223 21.143 19.9356 20.571L2.94035 4.00144C2.35371 3.42949 2.35371 2.50218 2.94035 1.93024Z" fill="white"/>
<path fill-rule="evenodd" clip-rule="evenodd" d="M1.93136 20.4258C1.34952 19.8492 1.35727 18.9219 1.94867 18.3547L19.0818 1.92056C19.6732 1.35329 20.6243 1.36084 21.2061 1.93743C21.7879 2.51401 21.7802 3.44129 21.1888 4.00856L4.0557 20.4427C3.46431 21.0099 2.51321 21.0024 1.93136 20.4258Z" fill="white"/>
</svg>
