<svg xmlns="http://www.w3.org/2000/svg" xmlns:xlink="http://www.w3.org/1999/xlink"><symbol id="icon-arrow-left" viewBox="0 0 32 32">
<path d="M6.71957 17.3861L21.8058 29.4253C22.7654 30.1916 24.3213 30.1916 25.2805 29.4253C26.2398 28.6598 26.2398 27.4181 25.2805 26.6526L11.9316 15.9998L25.2802 5.34733C26.2394 4.58147 26.2394 3.33995 25.2802 2.5744C24.3209 1.80853 22.765 1.80853 21.8054 2.5744L6.71919 14.6138C6.23955 14.9967 6 15.4981 6 15.9997C6 16.5016 6.24002 17.0034 6.71957 17.3861Z" fill="currentColor"/>
</symbol><symbol id="icon-arrow" viewBox="0 0 17 16">
<path d="M9.19307 12.6402L15.2127 5.09712C15.5958 4.61729 15.5958 3.83933 15.2127 3.35973C14.8299 2.88009 14.2091 2.88009 13.8263 3.35973L8.4999 10.0342L3.17367 3.35992C2.79074 2.88028 2.16997 2.88028 1.7872 3.35992C1.40427 3.83956 1.40427 4.61749 1.7872 5.09732L7.80688 12.6404C7.99836 12.8802 8.24905 13 8.49987 13C8.75081 13 9.00168 12.88 9.19307 12.6402Z" fill="currentColor"/>
</symbol><symbol id="icon-basket" viewBox="0 0 32 32">
<path fill-rule="evenodd" clip-rule="evenodd" d="M11.9989 24.0003C10.3429 24.0003 8.99891 25.3443 8.99891 27.0003C8.99891 28.6563 10.3429 30.0003 11.9989 30.0003C13.6549 30.0003 14.9989 28.6563 14.9989 27.0003C14.9989 25.3443 13.6549 24.0003 11.9989 24.0003ZM11.9989 26.0003C12.5509 26.0003 12.9989 26.4483 12.9989 27.0003C12.9989 27.5523 12.5509 28.0003 11.9989 28.0003C11.4469 28.0003 10.9989 27.5523 10.9989 27.0003C10.9989 26.4483 11.4469 26.0003 11.9989 26.0003Z" fill="currentColor"/>
<path fill-rule="evenodd" clip-rule="evenodd" d="M23.9983 24.0003C22.3423 24.0003 20.9983 25.3443 20.9983 27.0003C20.9983 28.6563 22.3423 30.0003 23.9983 30.0003C25.6543 30.0003 26.9983 28.6563 26.9983 27.0003C26.9983 25.3443 25.6543 24.0003 23.9983 24.0003ZM23.9983 26.0003C24.5503 26.0003 24.9983 26.4483 24.9983 27.0003C24.9983 27.5523 24.5503 28.0003 23.9983 28.0003C23.4463 28.0003 22.9983 27.5523 22.9983 27.0003C22.9983 26.4483 23.4463 26.0003 23.9983 26.0003Z" fill="currentColor"/>
<path fill-rule="evenodd" clip-rule="evenodd" d="M4.292 3.836C4.588 5.611 7.683 20.629 7.683 20.629C7.98 22.012 9.202 23 10.617 23C14.036 23 21.964 23 25.383 23C26.798 23 28.02 22.012 28.317 20.629L30.459 10.629C30.649 9.743 30.429 8.81901 29.859 8.11401C29.289 7.40901 28.432 7 27.526 7H6.847L6.265 3.50699C6.024 2.05999 4.772 1 3.306 1C2.626 1 2 1 2 1C1.448 1 1 1.448 1 2C1 2.552 1.448 3 2 3H3.306C3.795 3 4.212 3.353 4.292 3.836ZM28.504 10.21L26.361 20.21C26.262 20.671 25.855 21 25.383 21C21.964 21 14.036 21 10.617 21C10.145 21 9.738 20.671 9.639 20.21L7.237 9H27.526C27.828 9 28.114 9.136 28.304 9.371C28.494 9.606 28.567 9.91399 28.504 10.21Z" fill="currentColor"/>
</symbol><symbol id="icon-breadcrumbs-arrow" viewBox="0 0 8 8">
<path d="M6.32011 3.65346L2.54856 0.643669C2.30865 0.45211 1.91966 0.45211 1.67986 0.643669C1.44005 0.835056 1.44005 1.14547 1.67986 1.33684L5.0171 4.00005L1.67996 6.66317C1.44014 6.85463 1.44014 7.16501 1.67996 7.3564C1.91978 7.54787 2.30874 7.54787 2.54866 7.3564L6.3202 4.34656C6.44011 4.25082 6.5 4.12547 6.5 4.00007C6.5 3.8746 6.44 3.74916 6.32011 3.65346Z" fill="currentColor"/>
</symbol><symbol id="icon-burger" viewBox="0 0 24 24">
<path fill-rule="evenodd" clip-rule="evenodd" d="M0.75 6C0.75 5.58579 1.08579 5.25 1.5 5.25H22.5C22.9142 5.25 23.25 5.58579 23.25 6C23.25 6.41421 22.9142 6.75 22.5 6.75H1.5C1.08579 6.75 0.75 6.41421 0.75 6Z" fill="currentColor"/>
<path fill-rule="evenodd" clip-rule="evenodd" d="M0.75 12C0.75 11.5858 1.08579 11.25 1.5 11.25H22.5C22.9142 11.25 23.25 11.5858 23.25 12C23.25 12.4142 22.9142 12.75 22.5 12.75H1.5C1.08579 12.75 0.75 12.4142 0.75 12Z" fill="currentColor"/>
<path fill-rule="evenodd" clip-rule="evenodd" d="M0.75 18C0.75 17.5858 1.08579 17.25 1.5 17.25H22.5C22.9142 17.25 23.25 17.5858 23.25 18C23.25 18.4142 22.9142 18.75 22.5 18.75H1.5C1.08579 18.75 0.75 18.4142 0.75 18Z" fill="currentColor"/>
</symbol><symbol id="icon-close" viewBox="0 0 24 24">
<path fill-rule="evenodd" clip-rule="evenodd" d="M2.94035 1.93024C3.52699 1.35829 4.47812 1.35829 5.06476 1.93024L22.06 18.4998C22.6467 19.0718 22.6467 19.9991 22.06 20.571C21.4734 21.143 20.5223 21.143 19.9356 20.571L2.94035 4.00144C2.35371 3.42949 2.35371 2.50218 2.94035 1.93024Z" fill="white"/>
<path fill-rule="evenodd" clip-rule="evenodd" d="M1.93136 20.4258C1.34952 19.8492 1.35727 18.9219 1.94867 18.3547L19.0818 1.92056C19.6732 1.35329 20.6243 1.36084 21.2061 1.93743C21.7879 2.51401 21.7802 3.44129 21.1888 4.00856L4.0557 20.4427C3.46431 21.0099 2.51321 21.0024 1.93136 20.4258Z" fill="white"/>
</symbol><symbol id="icon-favorites" viewBox="0 0 32 32">
<path d="M8.69976 4C6.72297 4 4.74905 4.76164 3.24884 6.2669C0.248465 9.27745 0.252309 14.1422 3.24884 17.1547L14.7173 28.6791C14.8186 28.7807 14.9394 28.8614 15.0727 28.9165C15.206 28.9716 15.3491 29 15.4936 29C15.6381 29 15.7812 28.9716 15.9145 28.9165C16.0478 28.8614 16.1686 28.7807 16.2699 28.6791C20.097 24.8391 23.9226 21.0059 27.7497 17.1659C30.7501 14.1554 30.7501 9.28861 27.7497 6.27807C24.7493 3.26753 19.837 3.2675 16.8365 6.27807L15.4993 7.61811L14.1507 6.2669C12.6505 4.76164 10.6765 4 8.69976 4ZM8.69976 6.12173C10.1048 6.12173 11.507 6.66845 12.5981 7.76328L14.7287 9.89618C14.8299 9.9978 14.9507 10.0785 15.084 10.1336C15.2173 10.1887 15.3604 10.2171 15.5049 10.2171C15.6495 10.2171 15.7925 10.1887 15.9258 10.1336C16.0591 10.0785 16.1799 9.9978 16.2812 9.89618L18.3891 7.77445C20.5714 5.58475 24.0149 5.58478 26.1972 7.77445C28.3795 9.96411 28.3795 13.4687 26.1972 15.6584C22.6302 19.2373 19.0663 22.8221 15.4993 26.4011L4.80138 15.6472C2.62035 13.4545 2.61912 9.95294 4.80138 7.76328C5.89256 6.66845 7.29467 6.12173 8.69976 6.12173Z" fill="currentColor"/>
</symbol><symbol id="icon-logo" viewBox="0 0 182 35">
<path d="M7.78665 17.0372C7.12397 15.1519 5.06786 9.1564 8.86915 4.11283C12.5185 -0.729066 19.8302 1.22772 22.4452 2.3985C17.7519 2.73965 8.24873 6.1447 7.78665 17.0372Z" fill="#FF5C00"/>
<path d="M11.972 23.9861C10.0054 23.6163 3.77621 22.3955 1.30173 16.5888C-1.07461 11.0124 4.27913 5.66912 6.60246 3.99341C4.55065 8.22167 2.75318 18.14 11.972 23.9861Z" fill="#FF5C00"/>
<path d="M20.028 24.0254C18.7241 25.5402 14.5503 30.3163 8.27527 29.5517C2.25025 28.8179 0.292296 21.5172 0 18.6714C2.64284 22.5585 10.3479 29.0718 20.028 24.0254Z" fill="#FF5C00"/>
<path d="M24.1359 16.9628C24.7986 18.848 26.8547 24.8443 23.0534 29.8871C19.404 34.729 12.0923 32.7722 9.47743 31.6014C14.1714 31.2603 23.6739 27.8552 24.1359 16.9628Z" fill="#FF5C00"/>
<path d="M20.028 9.94022C21.9946 10.31 28.2238 11.5308 30.6983 17.3375C33.0739 22.9132 27.7201 28.2564 25.3975 29.9322C27.4486 25.7039 29.2461 15.7855 20.028 9.94022Z" fill="#FF5C00"/>
<path d="M11.972 9.86731C13.2759 8.35252 17.4497 3.57642 23.7247 4.34097C29.7498 5.07476 31.7077 12.3748 32 15.2213C29.3572 11.3342 21.6521 4.82087 11.972 9.86731Z" fill="#FF5C00"/>
<path d="M55.387 24.9672C54.8002 25.531 54.1232 25.9595 53.3559 26.2527C52.6111 26.5459 51.81 26.6925 50.9524 26.6925C49.2598 26.6925 47.8832 26.1851 46.8225 25.1701C45.7844 24.1327 45.2653 22.7907 45.2653 21.1443V12.2806H41V9.60796H45.2653V4.33035H48.1089V9.60796L54.5068 9.60796V12.2806L48.1089 12.2806V20.8398C48.1089 21.8322 48.3684 22.6103 48.8875 23.1741C49.4291 23.7154 50.1625 23.9861 51.0878 23.9861C52.1485 23.9861 53.1189 23.5801 53.9991 22.7682L55.387 24.9672ZM65.0622 26.6925C63.7081 26.6925 62.4895 26.3881 61.4062 25.7791C60.323 25.1701 59.4767 24.3357 58.8673 23.2756C58.258 22.193 57.9533 20.9751 57.9533 19.6219V9.60796H60.7969V19.6557C60.7969 20.9187 61.1918 21.9562 61.9817 22.7682C62.7941 23.5801 63.821 23.9861 65.0622 23.9861C66.326 23.9861 67.3641 23.5801 68.1766 22.7682C68.989 21.9337 69.3952 20.8962 69.3952 19.6557V9.60796H72.2388V19.6219C72.2388 20.9751 71.9228 22.193 71.2909 23.2756C70.6816 24.3357 69.824 25.1701 68.7182 25.7791C67.6349 26.3881 66.4163 26.6925 65.0622 26.6925ZM84.9432 12.2468H84.8416C83.3296 12.2468 82.0206 12.5738 80.9148 13.2279C79.8315 13.8594 79.0755 14.739 78.6467 15.8667V26.3881H75.8032V9.60796L78.6467 9.60796V12.0438C79.3012 11.2318 80.1362 10.5891 81.1518 10.1154C82.1899 9.64179 83.307 9.40497 84.5031 9.40497H84.6046L84.9432 12.2468ZM95.7677 9.26965C97.3023 9.26965 98.7241 9.66434 100.033 10.4537C101.365 11.2431 102.414 12.3031 103.181 13.6338C103.949 14.9645 104.332 16.4192 104.332 17.998C104.332 19.5768 103.949 21.0315 103.181 22.3622C102.414 23.6929 101.365 24.7529 100.033 25.5423C98.7241 26.3091 97.3023 26.6925 95.7677 26.6925C93.5786 26.6925 91.8635 25.9144 90.6223 24.3582V26.3881H87.7787V0L90.6223 0V11.604C91.8635 10.0478 93.5786 9.26965 95.7677 9.26965ZM95.6662 23.9861C96.7269 23.9861 97.6973 23.7154 98.5774 23.1741C99.4801 22.6328 100.191 21.9111 100.71 21.009C101.229 20.0842 101.489 19.0806 101.489 17.998C101.489 16.9154 101.229 15.923 100.71 15.0209C100.191 14.0962 99.4801 13.3632 98.5774 12.8219C97.6973 12.2806 96.7269 12.0099 95.6662 12.0099C94.6055 12.0099 93.6238 12.2919 92.7211 12.8557C91.8184 13.397 91.1187 14.1413 90.6223 15.0886V20.9075C91.1187 21.8547 91.8184 22.6103 92.7211 23.1741C93.6238 23.7154 94.6055 23.9861 95.6662 23.9861ZM110.648 26.3881H107.804V9.60796H110.648V26.3881ZM110.648 4.9393L107.804 4.9393V0L110.648 0V4.9393ZM121.923 9.26965C123.232 9.26965 124.406 9.61924 125.444 10.3184C126.482 10.995 127.294 11.8972 127.881 13.0249C128.468 14.1526 128.761 15.3366 128.761 16.5771V26.3881H125.918V16.5771C125.918 15.7426 125.715 14.9758 125.308 14.2766C124.925 13.5774 124.383 13.0249 123.683 12.6189C123.006 12.2129 122.262 12.0099 121.449 12.0099C120.524 12.0099 119.678 12.2693 118.91 12.7881C118.166 13.2842 117.624 13.9496 117.285 14.7841V26.3881H114.442V9.60796H117.285V11.3672C117.872 10.6905 118.561 10.1718 119.35 9.81094C120.14 9.45008 120.998 9.26965 121.923 9.26965ZM145.446 9.60796H148.29V26.3881H145.446V24.3582C144.205 25.9144 142.49 26.6925 140.301 26.6925C138.766 26.6925 137.333 26.3091 136.002 25.5423C134.693 24.7529 133.655 23.6929 132.887 22.3622C132.12 21.0315 131.737 19.5768 131.737 17.998C131.737 16.4192 132.12 14.9645 132.887 13.6338C133.655 12.3031 134.693 11.2431 136.002 10.4537C137.333 9.66434 138.766 9.26965 140.301 9.26965C142.49 9.26965 144.205 10.0478 145.446 11.604V9.60796ZM140.403 23.9861C141.441 23.9861 142.411 23.7154 143.314 23.1741C144.217 22.6328 144.927 21.8998 145.446 20.9751V15.0209C144.927 14.0962 144.217 13.3632 143.314 12.8219C142.411 12.2806 141.441 12.0099 140.403 12.0099C139.342 12.0099 138.36 12.2806 137.457 12.8219C136.577 13.3632 135.878 14.0962 135.359 15.0209C134.84 15.923 134.58 16.9154 134.58 17.998C134.58 19.0806 134.84 20.0842 135.359 21.009C135.878 21.9111 136.577 22.6328 137.457 23.1741C138.36 23.7154 139.342 23.9861 140.403 23.9861ZM161.452 12.2468H161.35C159.839 12.2468 158.529 12.5738 157.423 13.2279C156.341 13.8594 155.584 14.739 155.156 15.8667V26.3881H152.312V9.60796H155.156V12.0438C155.81 11.2318 156.644 10.5891 157.66 10.1154C158.698 9.64179 159.816 9.40497 161.012 9.40497H161.114L161.452 12.2468ZM172.435 20.6706L177.92 9.60796L181 9.60796L168.983 34H165.868L170.878 23.8169L163.736 9.60796L166.883 9.60796L172.435 20.6706Z" fill="white"/>
</symbol><symbol id="icon-search" viewBox="0 0 17 17">
<path d="M12.8795 10.9624C13.8547 9.51096 14.2545 7.74843 14.0012 6.01825C13.7479 4.28806 12.8596 2.71414 11.5093 1.60312C10.1589 0.492101 8.44339 -0.0764375 6.69681 0.00826824C4.95024 0.092974 3.29775 0.824857 2.06129 2.06133C0.824831 3.2978 0.0929602 4.9503 0.00826601 6.69688C-0.0764282 8.44346 0.49212 10.159 1.60314 11.5093C2.71417 12.8596 4.28809 13.748 6.01827 14.0013C7.74846 14.2546 9.51097 13.8547 10.9624 12.8795L13.6234 15.5405C13.8776 15.7947 14.2224 15.9375 14.5819 15.9375C14.9414 15.9375 15.2862 15.7947 15.5405 15.5405C15.7947 15.2862 15.9375 14.9414 15.9375 14.5819C15.9375 14.2224 15.7947 13.8776 15.5405 13.6234L12.8795 10.9624ZM7.04401 12.4488C5.97504 12.4488 4.93007 12.1318 4.04125 11.538C3.15244 10.9441 2.45969 10.0999 2.05061 9.11233C1.64154 8.12472 1.53451 7.03798 1.74305 5.98955C1.9516 4.94111 2.46637 3.97806 3.22225 3.22218C3.97813 2.4663 4.94118 1.95154 5.98961 1.74299C7.03805 1.53445 8.12478 1.64148 9.11238 2.05057C10.1 2.45965 10.9441 3.1524 11.538 4.04123C12.1319 4.93005 12.4489 5.97502 12.4489 7.044C12.4472 8.47696 11.8773 9.85077 10.864 10.864C9.85077 11.8773 8.47697 12.4472 7.04401 12.4488Z" fill="currentColor"/>
</symbol><symbol id="icon-user" viewBox="0 0 32 32">
<path fill-rule="evenodd" clip-rule="evenodd" d="M20.1383 13.9241C21.7793 12.7401 22.8517 10.776 22.8517 8.55172C22.8517 4.93103 20.0102 2 16.5 2C12.9898 2 10.1483 4.93103 10.1483 8.55172C10.1483 10.776 11.2207 12.7401 12.8617 13.9241C13.224 14.1855 13.6139 14.4089 14.0262 14.5887C14.7863 14.9202 15.6223 15.1034 16.5 15.1034C17.3777 15.1034 18.2137 14.9202 18.9738 14.5887C19.3861 14.4089 19.776 14.1855 20.1383 13.9241ZM20.5924 16.0117C20.0672 15.9134 19.5263 15.8621 18.9738 15.8621H14.0262C13.4737 15.8621 12.9328 15.9134 12.4076 16.0117C8.19755 16.7995 5 20.6043 5 25.1724V28.9655C5 29.5517 5.43459 30 6.00291 30H26.9971C27.5654 30 28 29.5517 28 28.9655V25.1724C28 20.6043 24.8025 16.7995 20.5924 16.0117ZM16.5 4C14.1524 4 12.1483 5.97671 12.1483 8.55172C12.1483 11.1267 14.1524 13.1034 16.5 13.1034C18.8476 13.1034 20.8517 11.1267 20.8517 8.55172C20.8517 5.97671 18.8476 4 16.5 4ZM18.9738 17.8621H14.0262C10.2076 17.8621 7 21.0802 7 25.1724V28H26V25.1724C26 21.0802 22.7924 17.8621 18.9738 17.8621Z" fill="currentColor"/>
</symbol></svg>